<svg style="position: absolute; width: 0; height: 0; overflow: hidden;" version="1.1" xmlns="http://www.w3.org/2000/svg" xmlns:xlink="http://www.w3.org/1999/xlink">
<defs>
<symbol id="icon-error" viewBox="0 0 24 24">
<title>error</title>
<path class="path1" d="M12.984 12.984v-6h-1.969v6h1.969zM12.984 17.016v-2.016h-1.969v2.016h1.969zM12 2.016c5.531 0 9.984 4.453 9.984 9.984s-4.453 9.984-9.984 9.984-9.984-4.453-9.984-9.984 4.453-9.984 9.984-9.984z"></path>
</symbol>
<symbol id="icon-flash_on" viewBox="0 0 24 24">
<title>flash_on</title>
<path class="path1" d="M6.984 2.016h10.031l-4.031 7.969h4.031l-7.031 12v-9h-3v-10.969z"></path>
</symbol>
<symbol id="icon-format_quote" viewBox="0 0 24 24">
<title>format_quote</title>
<path class="path1" d="M14.016 17.016l1.969-4.031h-3v-6h6v6l-1.969 4.031h-3zM6 17.016l2.016-4.031h-3v-6h6v6l-2.016 4.031h-3z"></path>
</symbol>
<symbol id="icon-help" viewBox="0 0 24 24">
<title>help</title>
<path class="path1" d="M15.047 11.25c0.563-0.563 0.938-1.359 0.938-2.25 0-2.203-1.781-3.984-3.984-3.984s-3.984 1.781-3.984 3.984h1.969c0-1.078 0.938-2.016 2.016-2.016s2.016 0.938 2.016 2.016c0 0.563-0.234 1.031-0.609 1.406l-1.219 1.266c-0.703 0.75-1.172 1.734-1.172 2.813v0.516h1.969c0-1.5 0.469-2.063 1.172-2.813zM12.984 18.984v-1.969h-1.969v1.969h1.969zM12 2.016c5.531 0 9.984 4.453 9.984 9.984s-4.453 9.984-9.984 9.984-9.984-4.453-9.984-9.984 4.453-9.984 9.984-9.984z"></path>
</symbol>
<symbol id="icon-info" viewBox="0 0 24 24">
<title>info</title>
<path class="path1" d="M12.984 9v-2.016h-1.969v2.016h1.969zM12.984 17.016v-6h-1.969v6h1.969zM12 2.016c5.531 0 9.984 4.453 9.984 9.984s-4.453 9.984-9.984 9.984-9.984-4.453-9.984-9.984 4.453-9.984 9.984-9.984z"></path>
</symbol>
<symbol id="icon-lightbulb_outline" viewBox="0 0 24 24">
<title>lightbulb_outline</title>
<path class="path1" d="M14.859 13.078c1.359-0.938 2.156-2.438 2.156-4.078 0-2.766-2.25-5.016-5.016-5.016s-5.016 2.25-5.016 5.016c0 1.641 0.797 3.141 2.156 4.078l0.844 0.609v2.297h4.031v-2.297zM12 2.016c3.844 0 6.984 3.141 6.984 6.984 0 2.391-1.172 4.453-3 5.719v2.297c0 0.563-0.422 0.984-0.984 0.984h-6c-0.563 0-0.984-0.422-0.984-0.984v-2.297c-1.828-1.266-3-3.328-3-5.719 0-3.844 3.141-6.984 6.984-6.984zM9 21v-0.984h6v0.984c0 0.563-0.422 0.984-0.984 0.984h-4.031c-0.563 0-0.984-0.422-0.984-0.984z"></path>
</symbol>
<symbol id="icon-new_releases" viewBox="0 0 24 24">
<title>new_releases</title>
<path class="path1" d="M12.984 12.984v-6h-1.969v6h1.969zM12.984 17.016v-2.016h-1.969v2.016h1.969zM23.016 12l-2.438 2.766 0.328 3.703-3.609 0.797-1.875 3.188-3.422-1.453-3.422 1.453-1.875-3.141-3.609-0.844 0.328-3.703-2.438-2.766 2.438-2.813-0.328-3.656 3.609-0.797 1.875-3.188 3.422 1.453 3.422-1.453 1.875 3.188 3.609 0.797-0.328 3.703z"></path>
</symbol>
<symbol id="icon-report" viewBox="0 0 24 24">
<title>report</title>
<path class="path1" d="M12.984 12.984v-6h-1.969v6h1.969zM12 17.297c0.703 0 1.313-0.609 1.313-1.313s-0.609-1.266-1.313-1.266-1.313 0.563-1.313 1.266 0.609 1.313 1.313 1.313zM15.75 3l5.25 5.25v7.5l-5.25 5.25h-7.5l-5.25-5.25v-7.5l5.25-5.25h7.5z"></path>
</symbol>
<symbol id="icon-warning" viewBox="0 0 24 24">
<title>warning</title>
<path class="path1" d="M12.984 14.016v-4.031h-1.969v4.031h1.969zM12.984 18v-2.016h-1.969v2.016h1.969zM0.984 21l11.016-18.984 11.016 18.984h-22.031z"></path>
</symbol>
<symbol id="icon-whatshot" viewBox="0 0 24 24">
<title>whatshot</title>
<path class="path1" d="M11.719 18.984c2.672 0 4.781-2.109 4.781-4.781 0-1.406-0.188-2.719-0.563-4.031-1.031 1.359-2.859 2.203-4.641 2.578s-2.813 1.453-2.813 3.094c0 1.734 1.453 3.141 3.234 3.141zM13.5 0.656c3.891 3.141 6.516 7.969 6.516 13.359 0 4.406-3.609 7.969-8.016 7.969s-8.016-3.563-8.016-7.969c0-3.375 1.219-6.516 3.234-8.906v0.375c0 2.063 1.547 3.703 3.609 3.703s3.422-1.641 3.422-3.703c0-2.156-0.75-4.828-0.75-4.828z"></path>
</symbol>
</defs>
</svg>
